<svg width="47" height="39" viewBox="0 0 47 39" fill="none" xmlns="http://www.w3.org/2000/svg">
<path d="M8.688 4.112C8.688 5.04 8.368 5.81333 7.728 6.432C7.09867 7.04 6.13333 7.344 4.832 7.344H2.688V12H1.232V0.848H4.832C6.09067 0.848 7.04533 1.152 7.696 1.76C8.35733 2.368 8.688 3.152 8.688 4.112ZM4.832 6.144C5.64267 6.144 6.24 5.968 6.624 5.616C7.008 5.264 7.2 4.76267 7.2 4.112C7.2 2.736 6.41067 2.048 4.832 2.048H2.688V6.144H4.832ZM11.9536 10.816H15.8576V12H10.4976V0.848H11.9536V10.816ZM23.9959 9.52H19.1319L18.2359 12H16.6999L20.7319 0.912H22.4119L26.4279 12H24.8919L23.9959 9.52ZM23.5799 8.336L21.5639 2.704L19.5479 8.336H23.5799ZM36.9531 12H35.4971L29.6411 3.12V12H28.1851V0.832H29.6411L35.4971 9.696V0.832H36.9531V12ZM46.2991 0.848V2.032H43.2591V12H41.8031V2.032H38.7471V0.848H46.2991ZM4.768 38.112C4.032 38.112 3.37067 37.984 2.784 37.728C2.208 37.4613 1.75467 37.0987 1.424 36.64C1.09333 36.1707 0.922667 35.632 0.912 35.024H2.464C2.51733 35.5467 2.73067 35.9893 3.104 36.352C3.488 36.704 4.04267 36.88 4.768 36.88C5.46133 36.88 6.00533 36.7093 6.4 36.368C6.80533 36.016 7.008 35.568 7.008 35.024C7.008 34.5973 6.89067 34.2507 6.656 33.984C6.42133 33.7173 6.128 33.5147 5.776 33.376C5.424 33.2373 4.94933 33.088 4.352 32.928C3.616 32.736 3.024 32.544 2.576 32.352C2.13867 32.16 1.76 31.8613 1.44 31.456C1.13067 31.04 0.976 30.4853 0.976 29.792C0.976 29.184 1.13067 28.6453 1.44 28.176C1.74933 27.7067 2.18133 27.344 2.736 27.088C3.30133 26.832 3.94667 26.704 4.672 26.704C5.71733 26.704 6.57067 26.9653 7.232 27.488C7.904 28.0107 8.28267 28.704 8.368 29.568H6.768C6.71467 29.1413 6.49067 28.768 6.096 28.448C5.70133 28.1173 5.17867 27.952 4.528 27.952C3.92 27.952 3.424 28.112 3.04 28.432C2.656 28.7413 2.464 29.1787 2.464 29.744C2.464 30.1493 2.576 30.48 2.8 30.736C3.03467 30.992 3.31733 31.1893 3.648 31.328C3.98933 31.456 4.464 31.6053 5.072 31.776C5.808 31.9787 6.4 32.1813 6.848 32.384C7.296 32.576 7.68 32.88 8 33.296C8.32 33.7013 8.48 34.256 8.48 34.96C8.48 35.504 8.336 36.016 8.048 36.496C7.76 36.976 7.33333 37.3653 6.768 37.664C6.20267 37.9627 5.536 38.112 4.768 38.112ZM19.2146 26.848V38H17.7586V32.944H12.0786V38H10.6226V26.848H12.0786V31.744H17.7586V26.848H19.2146ZM26.7568 38.112C25.7221 38.112 24.7781 37.872 23.9248 37.392C23.0714 36.9013 22.3941 36.224 21.8928 35.36C21.4021 34.4853 21.1568 33.504 21.1568 32.416C21.1568 31.328 21.4021 30.352 21.8928 29.488C22.3941 28.6133 23.0714 27.936 23.9248 27.456C24.7781 26.9653 25.7221 26.72 26.7568 26.72C27.8021 26.72 28.7514 26.9653 29.6048 27.456C30.4581 27.936 31.1301 28.608 31.6208 29.472C32.1114 30.336 32.3568 31.3173 32.3568 32.416C32.3568 33.5147 32.1114 34.496 31.6208 35.36C31.1301 36.224 30.4581 36.9013 29.6048 37.392C28.7514 37.872 27.8021 38.112 26.7568 38.112ZM26.7568 36.848C27.5354 36.848 28.2341 36.6667 28.8528 36.304C29.4821 35.9413 29.9728 35.424 30.3248 34.752C30.6874 34.08 30.8688 33.3013 30.8688 32.416C30.8688 31.52 30.6874 30.7413 30.3248 30.08C29.9728 29.408 29.4874 28.8907 28.8688 28.528C28.2501 28.1653 27.5461 27.984 26.7568 27.984C25.9674 27.984 25.2634 28.1653 24.6448 28.528C24.0261 28.8907 23.5354 29.408 23.1728 30.08C22.8208 30.7413 22.6448 31.52 22.6448 32.416C22.6448 33.3013 22.8208 34.08 23.1728 34.752C23.5354 35.424 24.0261 35.9413 24.6448 36.304C25.2741 36.6667 25.9781 36.848 26.7568 36.848ZM41.7349 30.112C41.7349 31.04 41.4149 31.8133 40.7749 32.432C40.1455 33.04 39.1802 33.344 37.8789 33.344H35.7349V38H34.2789V26.848H37.8789C39.1375 26.848 40.0922 27.152 40.7429 27.76C41.4042 28.368 41.7349 29.152 41.7349 30.112ZM37.8789 32.144C38.6895 32.144 39.2869 31.968 39.6709 31.616C40.0549 31.264 40.2469 30.7627 40.2469 30.112C40.2469 28.736 39.4575 28.048 37.8789 28.048H35.7349V32.144H37.8789Z" fill="#F1ACEE"/>
</svg>
